M48
; DRILL file {KiCad (6.0.11)} date Fri Apr  7 23:50:51 2023
; FORMAT={-:-/ absolute / metric / decimal}
; #@! TF.CreationDate,2023-04-07T23:50:51+07:00
; #@! TF.GenerationSoftware,Kicad,Pcbnew,(6.0.11)
; #@! TF.FileFunction,Plated,1,2,PTH
FMAT,2
METRIC
; #@! TA.AperFunction,Plated,PTH,ViaDrill
T1C0.400
; #@! TA.AperFunction,Plated,PTH,ComponentDrill
T2C0.850
; #@! TA.AperFunction,Plated,PTH,ViaDrill
T3C1.000
; #@! TA.AperFunction,Plated,PTH,ComponentDrill
T4C1.000
; #@! TA.AperFunction,Plated,PTH,ComponentDrill
T5C1.300
; #@! TA.AperFunction,Plated,PTH,ComponentDrill
T6C3.200
%
G90
G05
T1
X74.08Y-67.85
X74.08Y-73.8
X77.205Y-62.455
X77.24Y-54.72
X77.36Y-141.85
X77.91Y-75.63
X83.34Y-69.69
X83.34Y-73.74
X86.99Y-75.54
X90.39Y-97.07
X91.79Y-97.96
X93.43Y-75.3
X107.88Y-175.62
X108.062Y-167.287
X108.07Y-165.08
X109.45Y-133.05
X112.77Y-162.7
X114.05Y-162.72
X120.3Y-170.06
X120.3Y-172.7
X121.052Y-175.653
X124.92Y-165.07
X124.927Y-169.992
X124.93Y-131.28
X125.63Y-162.78
X125.66Y-128.28
X126.94Y-162.81
X130.02Y-97.94
X132.55Y-97.04
X134.17Y-167.065
X134.18Y-172.83
X136.215Y-171.465
X137.48Y-178.83
X140.54Y-162.8
X141.86Y-162.87
X142.93Y-134.43
X144.142Y-171.542
X144.15Y-178.53
X145.25Y-135.48
X145.84Y-132.25
X146.262Y-171.477
X146.262Y-180.817
X147.79Y-131.22
X149.27Y-162.88
X150.56Y-162.92
X151.86Y-162.91
X153.98Y-171.55
X153.99Y-178.5
X157.705Y-167.295
X157.71Y-165.09
X157.71Y-175.41
X160.48Y-136.44
X162.4Y-162.89
X163.7Y-162.89
X170.69Y-170.22
X170.69Y-172.44
X173.11Y-136.44
X173.66Y-135.51
X173.9Y-134.43
X174.15Y-133.39
X174.157Y-175.308
X174.22Y-167.25
X174.25Y-132.24
X174.26Y-165.07
X174.44Y-131.21
X179.0Y-162.74
X180.26Y-162.77
X187.1Y-170.16
X187.1Y-172.48
X189.87Y-167.0
X189.89Y-165.07
X189.98Y-175.08
X194.53Y-162.57
X195.82Y-162.55
X199.14Y-157.33
X199.18Y-76.94
X202.87Y-169.82
X202.87Y-172.22
X218.27Y-165.95
X218.27Y-170.85
T2
X77.25Y-82.37
X79.25Y-82.37
X81.25Y-82.37
X119.85Y-82.21
X119.85Y-84.75
X119.85Y-143.17
X119.85Y-145.71
X122.39Y-82.21
X122.39Y-84.75
X122.39Y-143.17
X122.39Y-145.71
X124.93Y-82.21
X124.93Y-84.75
X124.93Y-143.17
X124.93Y-145.71
X127.47Y-82.21
X127.47Y-84.75
X127.47Y-143.17
X127.47Y-145.71
X130.01Y-82.21
X130.01Y-84.75
X130.01Y-143.17
X130.01Y-145.71
X132.55Y-82.21
X132.55Y-84.75
X132.55Y-143.17
X132.55Y-145.71
X135.133Y-82.184
X135.133Y-84.724
X135.133Y-143.144
X135.133Y-145.684
X137.638Y-82.184
X137.638Y-84.724
X137.638Y-143.144
X137.638Y-145.684
X140.204Y-82.244
X140.204Y-84.784
X140.204Y-143.204
X140.204Y-145.744
X142.77Y-82.184
X142.77Y-84.724
X142.77Y-143.144
X142.77Y-145.684
X145.25Y-82.21
X145.25Y-84.75
X145.25Y-143.17
X145.25Y-145.71
X147.79Y-82.21
X147.79Y-84.75
X147.79Y-143.17
X147.79Y-145.71
X150.33Y-82.21
X150.33Y-84.75
X150.33Y-143.17
X150.33Y-145.71
X152.87Y-82.21
X152.87Y-84.75
X152.87Y-143.17
X152.87Y-145.71
X155.418Y-82.184
X155.418Y-84.724
X155.418Y-143.144
X155.418Y-145.684
X157.95Y-82.21
X157.95Y-84.75
X157.95Y-143.17
X157.95Y-145.71
X160.49Y-82.21
X160.49Y-84.75
X160.49Y-143.17
X160.49Y-145.71
X163.03Y-82.21
X163.03Y-84.75
X163.03Y-143.17
X163.03Y-145.71
X165.57Y-82.21
X165.57Y-84.75
X165.57Y-143.17
X165.57Y-145.71
X190.97Y-82.21
X190.97Y-145.71
X193.51Y-82.21
X193.51Y-145.71
T3
X94.67Y-70.67
X102.96Y-57.39
X102.97Y-70.63
X108.95Y-128.33
X145.25Y-87.49
X157.92Y-70.57
X157.98Y-94.67
X176.44Y-87.57
X181.78Y-70.84
X181.78Y-94.7
X208.76Y-163.13
X208.885Y-70.715
X213.97Y-67.14
X213.98Y-128.22
X214.02Y-178.53
X214.04Y-173.83
T4
X117.485Y-184.5
X117.485Y-187.04
X117.485Y-189.58
X117.485Y-192.12
X124.9Y-36.13
X124.9Y-61.53
X127.44Y-36.13
X127.44Y-61.53
X129.98Y-36.13
X129.98Y-61.53
X132.52Y-36.13
X132.52Y-61.53
X135.06Y-36.13
X135.06Y-61.53
X137.6Y-36.13
X137.6Y-61.53
X140.14Y-36.13
X140.14Y-61.53
X142.68Y-36.13
X142.68Y-61.53
X145.22Y-36.13
X145.22Y-61.53
X147.76Y-36.13
X147.76Y-61.53
X150.3Y-36.13
X150.3Y-61.53
X152.84Y-36.13
X152.84Y-61.53
X155.38Y-36.13
X155.38Y-61.53
X157.92Y-36.13
X157.92Y-61.53
X160.46Y-36.13
X160.46Y-61.53
T5
X68.755Y-57.375
X68.755Y-62.455
X136.595Y-188.105
X141.675Y-188.105
X146.755Y-188.105
X151.835Y-188.105
X156.915Y-188.105
X161.995Y-188.105
X167.075Y-188.105
X208.885Y-187.255
X213.965Y-187.255
T6
X65.18Y-36.45
X65.18Y-193.81
X66.94Y-82.13
X66.94Y-152.28
X103.56Y-82.18
X103.56Y-152.26
X220.93Y-36.65
X220.99Y-193.55
T0
M30
