G04 #@! TF.GenerationSoftware,KiCad,Pcbnew,(6.0.11)*
G04 #@! TF.CreationDate,2023-04-07T23:50:29+07:00*
G04 #@! TF.ProjectId,FRA261,46524132-3631-42e6-9b69-6361645f7063,rev?*
G04 #@! TF.SameCoordinates,Original*
G04 #@! TF.FileFunction,Soldermask,Top*
G04 #@! TF.FilePolarity,Negative*
%FSLAX46Y46*%
G04 Gerber Fmt 4.6, Leading zero omitted, Abs format (unit mm)*
G04 Created by KiCad (PCBNEW (6.0.11)) date 2023-04-07 23:50:29*
%MOMM*%
%LPD*%
G01*
G04 APERTURE LIST*
G04 Aperture macros list*
%AMRoundRect*
0 Rectangle with rounded corners*
0 $1 Rounding radius*
0 $2 $3 $4 $5 $6 $7 $8 $9 X,Y pos of 4 corners*
0 Add a 4 corners polygon primitive as box body*
4,1,4,$2,$3,$4,$5,$6,$7,$8,$9,$2,$3,0*
0 Add four circle primitives for the rounded corners*
1,1,$1+$1,$2,$3*
1,1,$1+$1,$4,$5*
1,1,$1+$1,$6,$7*
1,1,$1+$1,$8,$9*
0 Add four rect primitives between the rounded corners*
20,1,$1+$1,$2,$3,$4,$5,0*
20,1,$1+$1,$4,$5,$6,$7,0*
20,1,$1+$1,$6,$7,$8,$9,0*
20,1,$1+$1,$8,$9,$2,$3,0*%
%AMFreePoly0*
4,1,30,0.171263,0.730184,0.328778,0.674096,0.469953,0.584503,0.587770,0.465861,0.676374,0.324064,0.731362,0.166161,0.750000,0.000000,0.749708,-0.020941,0.726437,-0.186517,0.667062,-0.342823,0.574533,-0.482091,0.453449,-0.597397,0.309828,-0.683013,0.150808,-0.734681,-0.015707,-0.749836,-0.181441,-0.727722,-0.338158,-0.669439,-0.478068,-0.577885,-0.594217,-0.457609,-0.680833,-0.314589,
-0.733611,-0.155934,-0.749927,0.010472,-0.728971,0.176357,-0.671784,0.333476,-0.581208,0.474022,-0.461746,0.591008,-0.319334,0.678620,-0.161051,0.732504,0.005236,0.749982,0.171263,0.730184,0.171263,0.730184,$1*%
G04 Aperture macros list end*
%ADD10RoundRect,0.250000X0.625000X-0.312500X0.625000X0.312500X-0.625000X0.312500X-0.625000X-0.312500X0*%
%ADD11RoundRect,0.250000X-0.625000X0.312500X-0.625000X-0.312500X0.625000X-0.312500X0.625000X0.312500X0*%
%ADD12RoundRect,0.250000X-0.625000X0.375000X-0.625000X-0.375000X0.625000X-0.375000X0.625000X0.375000X0*%
%ADD13R,2.600000X2.600000*%
%ADD14C,2.600000*%
%ADD15R,1.000000X1.500000*%
%ADD16C,5.600000*%
%ADD17C,3.600000*%
%ADD18RoundRect,0.250000X-0.312500X-0.625000X0.312500X-0.625000X0.312500X0.625000X-0.312500X0.625000X0*%
%ADD19RoundRect,0.250000X-0.375000X-0.625000X0.375000X-0.625000X0.375000X0.625000X-0.375000X0.625000X0*%
%ADD20RoundRect,0.250000X0.312500X0.625000X-0.312500X0.625000X-0.312500X-0.625000X0.312500X-0.625000X0*%
%ADD21FreePoly0,270.000000*%
%ADD22R,1.700000X1.700000*%
%ADD23O,1.700000X1.700000*%
%ADD24FreePoly0,90.000000*%
%ADD25R,1.500000X1.500000*%
G04 APERTURE END LIST*
D10*
X142280000Y-174467500D03*
X142280000Y-171542500D03*
D11*
X167550000Y-172435000D03*
X167550000Y-175360000D03*
D12*
X220240000Y-163150000D03*
X220240000Y-165950000D03*
D13*
X136595000Y-188105000D03*
D14*
X141675000Y-188105000D03*
X146755000Y-188105000D03*
X151835000Y-188105000D03*
X156915000Y-188105000D03*
X161995000Y-188105000D03*
X167075000Y-188105000D03*
D15*
X76610000Y-73800000D03*
X77910000Y-73800000D03*
X79210000Y-73800000D03*
D16*
X103560000Y-82180000D03*
D17*
X103560000Y-82180000D03*
X66940000Y-82130000D03*
D16*
X66940000Y-82130000D03*
D11*
X199980000Y-166902500D03*
X199980000Y-169827500D03*
D18*
X120980000Y-128280000D03*
X123905000Y-128280000D03*
D10*
X113930000Y-175670000D03*
X113930000Y-172745000D03*
D16*
X65180000Y-36450000D03*
D17*
X65180000Y-36450000D03*
D11*
X127000000Y-167067500D03*
X127000000Y-169992500D03*
X130880000Y-172837500D03*
X130880000Y-175762500D03*
D19*
X91260000Y-62580000D03*
X94060000Y-62580000D03*
D11*
X167590000Y-167255000D03*
X167590000Y-170180000D03*
D15*
X194530000Y-162557500D03*
X195830000Y-162557500D03*
X197130000Y-162557500D03*
D11*
X184270000Y-172470000D03*
X184270000Y-175395000D03*
D10*
X152040000Y-174472500D03*
X152040000Y-171547500D03*
D18*
X132380000Y-128250000D03*
X135305000Y-128250000D03*
D20*
X87237500Y-62610000D03*
X84312500Y-62610000D03*
D10*
X123040000Y-169992500D03*
X123040000Y-167067500D03*
D11*
X199930000Y-172230000D03*
X199930000Y-175155000D03*
X110140000Y-167287500D03*
X110140000Y-170212500D03*
D15*
X178980000Y-162757500D03*
X180280000Y-162757500D03*
X181580000Y-162757500D03*
D10*
X127020000Y-175702500D03*
X127020000Y-172777500D03*
D21*
X165570000Y-82210000D03*
X165570000Y-84750000D03*
X163030000Y-82210000D03*
X163030000Y-84750000D03*
X160490000Y-82210000D03*
X160490000Y-84750000D03*
X157950000Y-82210000D03*
X157950000Y-84750000D03*
X155418332Y-82184446D03*
X155418332Y-84724446D03*
X152870000Y-82210000D03*
X152870000Y-84750000D03*
X150330000Y-82210000D03*
X150330000Y-84750000D03*
X147790000Y-82210000D03*
X147790000Y-84750000D03*
X145250000Y-82210000D03*
X145250000Y-84750000D03*
X142769553Y-82184446D03*
X142769553Y-84724446D03*
X140203998Y-82244109D03*
X140203998Y-84784109D03*
X137638444Y-82184446D03*
X137638444Y-84724446D03*
X135132554Y-82184446D03*
X135132554Y-84724446D03*
X132550000Y-82210000D03*
X132550000Y-84750000D03*
X130010000Y-82210000D03*
X130010000Y-84750000D03*
X127470000Y-82210000D03*
X127470000Y-84750000D03*
X124930000Y-82210000D03*
X124930000Y-84750000D03*
X122390000Y-82210000D03*
X122390000Y-84750000D03*
X119850000Y-82210000D03*
X119850000Y-84750000D03*
X165570000Y-143170000D03*
X165570000Y-145710000D03*
X163030000Y-143170000D03*
X163030000Y-145710000D03*
X160490000Y-143170000D03*
X160490000Y-145710000D03*
X157950000Y-143170000D03*
X157950000Y-145710000D03*
X155418332Y-143144446D03*
X155418332Y-145684446D03*
X152870000Y-143170000D03*
X152870000Y-145710000D03*
X150330000Y-143170000D03*
X150330000Y-145710000D03*
X147790000Y-143170000D03*
X147790000Y-145710000D03*
X145250000Y-143170000D03*
X145250000Y-145710000D03*
X142769553Y-143144446D03*
X142769553Y-145684446D03*
X140203998Y-143204109D03*
X140203998Y-145744109D03*
X137638444Y-143144446D03*
X137638444Y-145684446D03*
X135132554Y-143144446D03*
X135132554Y-145684446D03*
X132550000Y-143170000D03*
X132550000Y-145710000D03*
X130010000Y-143170000D03*
X130010000Y-145710000D03*
X127470000Y-143170000D03*
X127470000Y-145710000D03*
X124930000Y-143170000D03*
X124930000Y-145710000D03*
X122390000Y-143170000D03*
X122390000Y-145710000D03*
X119850000Y-143170000D03*
X119850000Y-145710000D03*
X193510000Y-82210000D03*
X190970000Y-82210000D03*
X193510000Y-145710000D03*
X190970000Y-145710000D03*
D13*
X208885000Y-187255000D03*
D14*
X213965000Y-187255000D03*
D11*
X192020000Y-166980000D03*
X192020000Y-169905000D03*
D10*
X180260000Y-175325000D03*
X180260000Y-172400000D03*
D11*
X159760000Y-167295000D03*
X159760000Y-170220000D03*
X159790000Y-172455000D03*
X159790000Y-175380000D03*
D17*
X103560000Y-152260000D03*
D16*
X103560000Y-152260000D03*
D20*
X81632500Y-62600000D03*
X78707500Y-62600000D03*
D22*
X117485000Y-184500000D03*
D23*
X117485000Y-187040000D03*
X117485000Y-189580000D03*
X117485000Y-192120000D03*
D11*
X117520000Y-167115000D03*
X117520000Y-170040000D03*
X117590000Y-172685000D03*
X117590000Y-175610000D03*
D16*
X66940000Y-152280000D03*
D17*
X66940000Y-152280000D03*
D10*
X196030000Y-169812500D03*
X196030000Y-166887500D03*
D11*
X123220000Y-172727500D03*
X123220000Y-175652500D03*
D15*
X149260000Y-162887500D03*
X150560000Y-162887500D03*
X151860000Y-162887500D03*
D11*
X220210000Y-170895000D03*
X220210000Y-173820000D03*
D16*
X65180000Y-193810000D03*
D17*
X65180000Y-193810000D03*
D15*
X162410000Y-162907500D03*
X163710000Y-162907500D03*
X165010000Y-162907500D03*
D10*
X195870000Y-175155000D03*
X195870000Y-172230000D03*
D15*
X85690000Y-73740000D03*
X86990000Y-73740000D03*
X88290000Y-73740000D03*
D18*
X115990000Y-128250000D03*
X118915000Y-128250000D03*
D10*
X163580000Y-170230000D03*
X163580000Y-167305000D03*
D11*
X138330000Y-171465000D03*
X138330000Y-174390000D03*
D16*
X220930000Y-36650000D03*
D17*
X220930000Y-36650000D03*
D13*
X68755000Y-57375000D03*
D14*
X68755000Y-62455000D03*
D10*
X163600000Y-175357500D03*
X163600000Y-172432500D03*
D11*
X192080000Y-172170000D03*
X192080000Y-175095000D03*
D15*
X139260000Y-162815000D03*
X140560000Y-162815000D03*
X141860000Y-162815000D03*
D18*
X127350000Y-128280000D03*
X130275000Y-128280000D03*
D16*
X220990000Y-193550000D03*
D17*
X220990000Y-193550000D03*
D11*
X184300000Y-167202500D03*
X184300000Y-170127500D03*
D18*
X110837500Y-128290000D03*
X113762500Y-128290000D03*
D11*
X148230000Y-171477500D03*
X148230000Y-174402500D03*
D15*
X112780000Y-162700000D03*
X114080000Y-162700000D03*
X115380000Y-162700000D03*
D11*
X176310000Y-167240000D03*
X176310000Y-170165000D03*
D15*
X125640000Y-162787500D03*
X126940000Y-162787500D03*
X128240000Y-162787500D03*
D10*
X113800000Y-170130000D03*
X113800000Y-167205000D03*
D23*
X160460000Y-36130000D03*
X157920000Y-36130000D03*
X155380000Y-36130000D03*
X152840000Y-36130000D03*
X150300000Y-36130000D03*
X147760000Y-36130000D03*
X145220000Y-36130000D03*
X142680000Y-36130000D03*
X140140000Y-36130000D03*
X137600000Y-36130000D03*
X135060000Y-36130000D03*
X132520000Y-36130000D03*
X129980000Y-36130000D03*
X127440000Y-36130000D03*
X124900000Y-36130000D03*
D22*
X160460000Y-61530000D03*
D23*
X157920000Y-61530000D03*
X155380000Y-61530000D03*
X152840000Y-61530000D03*
X150300000Y-61530000D03*
X147760000Y-61530000D03*
X145220000Y-61530000D03*
X142680000Y-61530000D03*
X140140000Y-61530000D03*
X137600000Y-61530000D03*
X135060000Y-61530000D03*
X132520000Y-61530000D03*
X129980000Y-61530000D03*
X127440000Y-61530000D03*
X124900000Y-61530000D03*
D24*
X77250000Y-82370000D03*
X79250000Y-82370000D03*
D25*
X81250000Y-82370000D03*
D10*
X130900000Y-169980000D03*
X130900000Y-167055000D03*
D11*
X110260000Y-172695000D03*
X110260000Y-175620000D03*
X176290000Y-172382500D03*
X176290000Y-175307500D03*
D10*
X180440000Y-170165000D03*
X180440000Y-167240000D03*
M02*
