G04 #@! TF.GenerationSoftware,KiCad,Pcbnew,(6.0.11)*
G04 #@! TF.CreationDate,2023-04-07T23:50:29+07:00*
G04 #@! TF.ProjectId,FRA261,46524132-3631-42e6-9b69-6361645f7063,rev?*
G04 #@! TF.SameCoordinates,Original*
G04 #@! TF.FileFunction,Paste,Top*
G04 #@! TF.FilePolarity,Positive*
%FSLAX46Y46*%
G04 Gerber Fmt 4.6, Leading zero omitted, Abs format (unit mm)*
G04 Created by KiCad (PCBNEW (6.0.11)) date 2023-04-07 23:50:29*
%MOMM*%
%LPD*%
G01*
G04 APERTURE LIST*
G04 Aperture macros list*
%AMRoundRect*
0 Rectangle with rounded corners*
0 $1 Rounding radius*
0 $2 $3 $4 $5 $6 $7 $8 $9 X,Y pos of 4 corners*
0 Add a 4 corners polygon primitive as box body*
4,1,4,$2,$3,$4,$5,$6,$7,$8,$9,$2,$3,0*
0 Add four circle primitives for the rounded corners*
1,1,$1+$1,$2,$3*
1,1,$1+$1,$4,$5*
1,1,$1+$1,$6,$7*
1,1,$1+$1,$8,$9*
0 Add four rect primitives between the rounded corners*
20,1,$1+$1,$2,$3,$4,$5,0*
20,1,$1+$1,$4,$5,$6,$7,0*
20,1,$1+$1,$6,$7,$8,$9,0*
20,1,$1+$1,$8,$9,$2,$3,0*%
G04 Aperture macros list end*
%ADD10RoundRect,0.250000X0.625000X-0.312500X0.625000X0.312500X-0.625000X0.312500X-0.625000X-0.312500X0*%
%ADD11RoundRect,0.250000X-0.625000X0.312500X-0.625000X-0.312500X0.625000X-0.312500X0.625000X0.312500X0*%
%ADD12RoundRect,0.250000X-0.625000X0.375000X-0.625000X-0.375000X0.625000X-0.375000X0.625000X0.375000X0*%
%ADD13RoundRect,0.250000X-0.312500X-0.625000X0.312500X-0.625000X0.312500X0.625000X-0.312500X0.625000X0*%
%ADD14RoundRect,0.250000X-0.375000X-0.625000X0.375000X-0.625000X0.375000X0.625000X-0.375000X0.625000X0*%
%ADD15RoundRect,0.250000X0.312500X0.625000X-0.312500X0.625000X-0.312500X-0.625000X0.312500X-0.625000X0*%
G04 APERTURE END LIST*
D10*
X142280000Y-174467500D03*
X142280000Y-171542500D03*
D11*
X167550000Y-172435000D03*
X167550000Y-175360000D03*
D12*
X220240000Y-163150000D03*
X220240000Y-165950000D03*
D11*
X199980000Y-166902500D03*
X199980000Y-169827500D03*
D13*
X120980000Y-128280000D03*
X123905000Y-128280000D03*
D10*
X113930000Y-175670000D03*
X113930000Y-172745000D03*
D11*
X127000000Y-167067500D03*
X127000000Y-169992500D03*
X130880000Y-172837500D03*
X130880000Y-175762500D03*
D14*
X91260000Y-62580000D03*
X94060000Y-62580000D03*
D11*
X167590000Y-167255000D03*
X167590000Y-170180000D03*
X184270000Y-172470000D03*
X184270000Y-175395000D03*
D10*
X152040000Y-174472500D03*
X152040000Y-171547500D03*
D13*
X132380000Y-128250000D03*
X135305000Y-128250000D03*
D15*
X87237500Y-62610000D03*
X84312500Y-62610000D03*
D10*
X123040000Y-169992500D03*
X123040000Y-167067500D03*
D11*
X199930000Y-172230000D03*
X199930000Y-175155000D03*
X110140000Y-167287500D03*
X110140000Y-170212500D03*
D10*
X127020000Y-175702500D03*
X127020000Y-172777500D03*
D11*
X192020000Y-166980000D03*
X192020000Y-169905000D03*
D10*
X180260000Y-175325000D03*
X180260000Y-172400000D03*
D11*
X159760000Y-167295000D03*
X159760000Y-170220000D03*
X159790000Y-172455000D03*
X159790000Y-175380000D03*
D15*
X81632500Y-62600000D03*
X78707500Y-62600000D03*
D11*
X117520000Y-167115000D03*
X117520000Y-170040000D03*
X117590000Y-172685000D03*
X117590000Y-175610000D03*
D10*
X196030000Y-169812500D03*
X196030000Y-166887500D03*
D11*
X123220000Y-172727500D03*
X123220000Y-175652500D03*
X220210000Y-170895000D03*
X220210000Y-173820000D03*
D10*
X195870000Y-175155000D03*
X195870000Y-172230000D03*
D13*
X115990000Y-128250000D03*
X118915000Y-128250000D03*
D10*
X163580000Y-170230000D03*
X163580000Y-167305000D03*
D11*
X138330000Y-171465000D03*
X138330000Y-174390000D03*
D10*
X163600000Y-175357500D03*
X163600000Y-172432500D03*
D11*
X192080000Y-172170000D03*
X192080000Y-175095000D03*
D13*
X127350000Y-128280000D03*
X130275000Y-128280000D03*
D11*
X184300000Y-167202500D03*
X184300000Y-170127500D03*
D13*
X110837500Y-128290000D03*
X113762500Y-128290000D03*
D11*
X148230000Y-171477500D03*
X148230000Y-174402500D03*
X176310000Y-167240000D03*
X176310000Y-170165000D03*
D10*
X113800000Y-170130000D03*
X113800000Y-167205000D03*
X130900000Y-169980000D03*
X130900000Y-167055000D03*
D11*
X110260000Y-172695000D03*
X110260000Y-175620000D03*
X176290000Y-172382500D03*
X176290000Y-175307500D03*
D10*
X180440000Y-170165000D03*
X180440000Y-167240000D03*
M02*
