G04 #@! TF.GenerationSoftware,KiCad,Pcbnew,(6.0.11)*
G04 #@! TF.CreationDate,2023-04-07T23:50:29+07:00*
G04 #@! TF.ProjectId,FRA261,46524132-3631-42e6-9b69-6361645f7063,rev?*
G04 #@! TF.SameCoordinates,Original*
G04 #@! TF.FileFunction,Soldermask,Bot*
G04 #@! TF.FilePolarity,Negative*
%FSLAX46Y46*%
G04 Gerber Fmt 4.6, Leading zero omitted, Abs format (unit mm)*
G04 Created by KiCad (PCBNEW (6.0.11)) date 2023-04-07 23:50:29*
%MOMM*%
%LPD*%
G01*
G04 APERTURE LIST*
G04 Aperture macros list*
%AMFreePoly0*
4,1,30,0.171263,0.730184,0.328778,0.674096,0.469953,0.584503,0.587770,0.465861,0.676374,0.324064,0.731362,0.166161,0.750000,0.000000,0.749708,-0.020941,0.726437,-0.186517,0.667062,-0.342823,0.574533,-0.482091,0.453449,-0.597397,0.309828,-0.683013,0.150808,-0.734681,-0.015707,-0.749836,-0.181441,-0.727722,-0.338158,-0.669439,-0.478068,-0.577885,-0.594217,-0.457609,-0.680833,-0.314589,
-0.733611,-0.155934,-0.749927,0.010472,-0.728971,0.176357,-0.671784,0.333476,-0.581208,0.474022,-0.461746,0.591008,-0.319334,0.678620,-0.161051,0.732504,0.005236,0.749982,0.171263,0.730184,0.171263,0.730184,$1*%
G04 Aperture macros list end*
%ADD10R,2.600000X2.600000*%
%ADD11C,2.600000*%
%ADD12C,3.600000*%
%ADD13C,5.600000*%
%ADD14FreePoly0,270.000000*%
%ADD15R,1.700000X1.700000*%
%ADD16O,1.700000X1.700000*%
%ADD17FreePoly0,90.000000*%
%ADD18R,1.500000X1.500000*%
G04 APERTURE END LIST*
D10*
X136595000Y-188105000D03*
D11*
X141675000Y-188105000D03*
X146755000Y-188105000D03*
X151835000Y-188105000D03*
X156915000Y-188105000D03*
X161995000Y-188105000D03*
X167075000Y-188105000D03*
D12*
X103560000Y-82180000D03*
D13*
X103560000Y-82180000D03*
D12*
X66940000Y-82130000D03*
D13*
X66940000Y-82130000D03*
X65180000Y-36450000D03*
D12*
X65180000Y-36450000D03*
D14*
X165570000Y-82210000D03*
X165570000Y-84750000D03*
X163030000Y-82210000D03*
X163030000Y-84750000D03*
X160490000Y-82210000D03*
X160490000Y-84750000D03*
X157950000Y-82210000D03*
X157950000Y-84750000D03*
X155418332Y-82184446D03*
X155418332Y-84724446D03*
X152870000Y-82210000D03*
X152870000Y-84750000D03*
X150330000Y-82210000D03*
X150330000Y-84750000D03*
X147790000Y-82210000D03*
X147790000Y-84750000D03*
X145250000Y-82210000D03*
X145250000Y-84750000D03*
X142769553Y-82184446D03*
X142769553Y-84724446D03*
X140203998Y-82244109D03*
X140203998Y-84784109D03*
X137638444Y-82184446D03*
X137638444Y-84724446D03*
X135132554Y-82184446D03*
X135132554Y-84724446D03*
X132550000Y-82210000D03*
X132550000Y-84750000D03*
X130010000Y-82210000D03*
X130010000Y-84750000D03*
X127470000Y-82210000D03*
X127470000Y-84750000D03*
X124930000Y-82210000D03*
X124930000Y-84750000D03*
X122390000Y-82210000D03*
X122390000Y-84750000D03*
X119850000Y-82210000D03*
X119850000Y-84750000D03*
X165570000Y-143170000D03*
X165570000Y-145710000D03*
X163030000Y-143170000D03*
X163030000Y-145710000D03*
X160490000Y-143170000D03*
X160490000Y-145710000D03*
X157950000Y-143170000D03*
X157950000Y-145710000D03*
X155418332Y-143144446D03*
X155418332Y-145684446D03*
X152870000Y-143170000D03*
X152870000Y-145710000D03*
X150330000Y-143170000D03*
X150330000Y-145710000D03*
X147790000Y-143170000D03*
X147790000Y-145710000D03*
X145250000Y-143170000D03*
X145250000Y-145710000D03*
X142769553Y-143144446D03*
X142769553Y-145684446D03*
X140203998Y-143204109D03*
X140203998Y-145744109D03*
X137638444Y-143144446D03*
X137638444Y-145684446D03*
X135132554Y-143144446D03*
X135132554Y-145684446D03*
X132550000Y-143170000D03*
X132550000Y-145710000D03*
X130010000Y-143170000D03*
X130010000Y-145710000D03*
X127470000Y-143170000D03*
X127470000Y-145710000D03*
X124930000Y-143170000D03*
X124930000Y-145710000D03*
X122390000Y-143170000D03*
X122390000Y-145710000D03*
X119850000Y-143170000D03*
X119850000Y-145710000D03*
X193510000Y-82210000D03*
X190970000Y-82210000D03*
X193510000Y-145710000D03*
X190970000Y-145710000D03*
D10*
X208885000Y-187255000D03*
D11*
X213965000Y-187255000D03*
D13*
X103560000Y-152260000D03*
D12*
X103560000Y-152260000D03*
D15*
X117485000Y-184500000D03*
D16*
X117485000Y-187040000D03*
X117485000Y-189580000D03*
X117485000Y-192120000D03*
D13*
X66940000Y-152280000D03*
D12*
X66940000Y-152280000D03*
D13*
X65180000Y-193810000D03*
D12*
X65180000Y-193810000D03*
X220930000Y-36650000D03*
D13*
X220930000Y-36650000D03*
D10*
X68755000Y-57375000D03*
D11*
X68755000Y-62455000D03*
D13*
X220990000Y-193550000D03*
D12*
X220990000Y-193550000D03*
D16*
X160460000Y-36130000D03*
X157920000Y-36130000D03*
X155380000Y-36130000D03*
X152840000Y-36130000D03*
X150300000Y-36130000D03*
X147760000Y-36130000D03*
X145220000Y-36130000D03*
X142680000Y-36130000D03*
X140140000Y-36130000D03*
X137600000Y-36130000D03*
X135060000Y-36130000D03*
X132520000Y-36130000D03*
X129980000Y-36130000D03*
X127440000Y-36130000D03*
X124900000Y-36130000D03*
D15*
X160460000Y-61530000D03*
D16*
X157920000Y-61530000D03*
X155380000Y-61530000D03*
X152840000Y-61530000D03*
X150300000Y-61530000D03*
X147760000Y-61530000D03*
X145220000Y-61530000D03*
X142680000Y-61530000D03*
X140140000Y-61530000D03*
X137600000Y-61530000D03*
X135060000Y-61530000D03*
X132520000Y-61530000D03*
X129980000Y-61530000D03*
X127440000Y-61530000D03*
X124900000Y-61530000D03*
D17*
X77250000Y-82370000D03*
X79250000Y-82370000D03*
D18*
X81250000Y-82370000D03*
M02*
